<svg width="480" height="367" viewBox="0 0 480 367" fill="none" xmlns="http://www.w3.org/2000/svg">
<path d="M89.7891 161.313L88.423 161.436V162.807V291.401H76.9604V162.807V161.435L75.5934 161.313C35.4159 157.736 3.87549 123.848 3.87549 82.5785C3.87549 38.9055 39.1785 3.5 82.6793 3.5C126.181 3.5 161.508 38.9061 161.508 82.5785C161.508 123.848 129.968 157.712 89.7891 161.313Z" stroke="#EE7B44" stroke-opacity="0.5" stroke-width="3"/>
<path d="M237.48 171.915H239.896L379.47 171.558V171.915C379.47 248.483 316.452 311.511 239.896 311.511C163.341 311.511 100.322 248.511 100.322 171.915V171.558L237.288 171.915L139.204 2H335.563L237.48 171.915Z" stroke="#042A2B" stroke-opacity="0.5" stroke-width="3" stroke-miterlimit="10"/>
<path d="M419.55 82.235L418.489 83.2957L419.55 84.3564L477.254 142.061L467.619 151.696L409.915 93.9914L408.854 92.9309L407.794 93.9912L350.073 151.695L340.453 142.062L398.158 84.3564L399.219 83.2957L398.158 82.235L340.453 24.5298L350.073 14.8961L407.794 72.6001L408.854 73.6605L409.915 72.6L467.619 14.8955L477.254 24.5305L419.55 82.235Z" stroke="#DC393A" stroke-opacity="0.5" stroke-width="3"/>
<path d="M372.15 297.86L371.152 296.971L370.154 297.861C359.448 307.412 345.34 313.214 329.883 313.214C296.481 313.214 269.311 286.044 269.311 252.658C269.311 219.257 296.481 192.086 329.883 192.086C345.339 192.086 359.447 197.903 370.155 207.441L371.152 208.329L372.149 207.441C382.872 197.903 396.981 192.086 412.422 192.086C445.808 192.086 472.978 219.257 472.978 252.658C472.978 286.044 445.808 313.214 412.422 313.214C396.98 313.214 382.872 307.412 372.15 297.86Z" stroke="#5EB1BE" stroke-opacity="0.5" stroke-width="3"/>
<path d="M121.7 179.106C129.995 179.106 137.507 175.749 142.942 170.299C148.377 164.864 151.749 157.367 151.749 149.072V98.729L117.951 84.1259L109.761 80.573C109.144 81.401 102.641 112.293 93.3067 139.256C86.5622 158.767 101.06 179.106 121.7 179.106Z" fill="#6D464D"/>
<path d="M117.952 84.1252C118.057 86.9103 118.208 88.7018 118.208 88.9578C118.208 90.1772 122.709 115.529 126.789 123.704C130.628 131.427 134.362 143.907 151.735 147.987V98.7433L117.952 84.1252Z" fill="#392C2D"/>
<path d="M272.699 208.629H241.22C238.465 208.629 236.598 205.829 237.652 203.285L263.636 140.341C264.238 138.896 265.638 137.947 267.204 137.947H298.683C301.438 137.947 303.305 140.748 302.251 143.292L276.267 206.236C275.68 207.696 274.265 208.629 272.699 208.629Z" fill="#748BA5"/>
<path d="M275.816 208.629H244.336C241.581 208.629 239.715 205.829 240.768 203.285L266.753 140.341C267.355 138.896 268.755 137.948 270.321 137.948H301.8C304.555 137.948 306.422 140.748 305.368 143.292L279.384 206.236C278.781 207.696 277.381 208.629 275.816 208.629Z" fill="#283036"/>
<path d="M272.368 142.827H272.338C270.908 142.827 269.613 143.7 269.071 145.04L266.437 151.664C265.518 153.967 267.219 156.466 269.703 156.466C271.134 156.466 272.428 155.593 272.955 154.268L275.62 147.644C276.553 145.341 274.852 142.827 272.368 142.827Z" fill="#525F69"/>
<path d="M270.2 268.485L305.97 171.382C305.97 171.382 304.329 159.429 298.142 154.491C291.969 149.553 277.953 147.49 275.891 152.022C273.828 156.553 284.954 157.788 289.485 161.491C294.017 165.195 294.017 170.554 294.017 170.554C294.017 170.554 257.645 168.476 257.765 175.085C257.855 180.264 263.215 180.716 263.215 180.716C263.215 180.716 256.726 180.641 256.621 185.684C256.546 189.101 261.875 190.983 261.875 190.983C261.875 190.983 258.608 195.003 263.064 199.158C265.759 201.672 277.125 208.04 277.125 208.04L255.507 208.522L245.902 227.099L270.2 268.485Z" fill="#6D464D"/>
<path d="M289.002 183.127C284.049 182.871 279.096 182.615 274.158 182.329C271.734 182.193 269.295 182.058 266.872 181.907C265.652 181.832 264.448 181.757 263.228 181.681C262.159 181.606 261.136 181.651 260.157 181.185C259.721 180.974 259.886 180.342 260.278 180.206C261.392 179.845 262.626 180.086 263.785 180.146C264.899 180.221 266.029 180.281 267.143 180.357C269.566 180.507 272.005 180.688 274.429 180.853C279.292 181.185 284.139 181.546 289.002 181.907C289.77 181.967 289.785 183.172 289.002 183.127Z" fill="#3F2F33"/>
<path d="M285.916 197.821C281.776 197.399 277.666 196.782 273.586 195.924C271.509 195.488 269.446 194.976 267.384 194.404C265.502 193.877 263.274 193.485 261.618 192.416C261.121 192.1 261.286 191.212 261.934 191.257C263.921 191.363 265.923 192.236 267.835 192.763C269.807 193.305 271.81 193.801 273.797 194.283C277.847 195.247 281.941 196.075 286.066 196.737C286.684 196.812 286.548 197.881 285.916 197.821Z" fill="#3F2F33"/>
<path d="M182.763 28.1234C197.065 46.9267 199.474 60.7018 189.222 88.3573C178.563 117.082 171.442 137.255 148.439 133.567C128.265 130.33 124.321 116.811 120.241 108.636C116.161 100.461 111.66 75.1242 111.66 73.8897C111.66 72.6703 107.58 33.4227 127.603 23.2156C147.611 12.9934 182.763 28.1234 182.763 28.1234Z" fill="#6D464D"/>
<path d="M191.269 41.6121C191.269 41.6121 197.02 36.8548 191.269 30.9232C191.269 30.9232 188.845 22.7787 181.439 22.4023C181.439 22.4023 176.997 12.406 169.59 10.9155C162.184 9.44019 156.628 14.2426 156.628 14.2426C156.628 14.2426 154.777 5.72168 146.993 5.72168C139.21 5.72168 136.244 10.5392 136.244 10.5392C136.244 10.5392 130.313 7.2121 123.282 8.31109C116.237 9.42514 115.65 15.718 115.65 15.718C115.65 15.718 105.126 11.6382 100.685 17.1934C96.244 22.7486 98.0957 33.4976 98.0957 33.4976C98.0957 33.4976 90.6888 35.7257 90.6888 43.4939C90.6888 51.2621 95.5063 57.1184 95.5063 57.1184C95.5063 57.1184 86.609 62.0112 92.5405 69.7945C98.4721 77.5778 96.244 86.5203 101.438 88.6881C106.617 90.841 106.045 95.2219 106.045 95.2219L111.961 87.7849L121.446 82.3802L126.263 80.5285C126.263 80.5285 127.377 65.7147 128.491 64.977C129.605 64.2393 139.24 59.7982 139.24 59.7982C139.24 59.7982 141.815 37.9387 142.191 37.9387C142.552 37.9689 191.269 41.6121 191.269 41.6121Z" fill="#392C2D"/>
<path d="M121.429 67.2339C121.429 67.2339 113.285 56.1235 108.467 57.2376C103.65 58.3516 98.0944 69.0856 98.0944 69.0856C98.0944 69.0856 103.514 91.5322 109.762 93.5344C116.01 95.5367 119.954 89.4546 119.954 89.4546L121.429 67.2339Z" fill="#6D464D"/>
<path d="M110.169 63.9977C115.002 68.3335 117.41 74.9425 118.359 81.2203C118.464 81.958 117.395 82.3043 117.215 81.5365C115.77 75.4092 114.249 69.1314 109.672 64.4945C109.356 64.1633 109.838 63.6966 110.169 63.9977Z" fill="#3F2F33"/>
<path d="M115.89 75.8159C114.279 75.6052 112.834 76.5687 111.961 77.8784C111.479 78.6011 111.133 79.4291 110.892 80.2571C110.621 81.1754 110.35 82.0938 110.079 83.0121C109.913 83.5992 109.085 83.4487 109.055 82.8766C109.025 82.3346 108.965 81.7776 109.01 81.2507C109.055 80.7087 109.161 80.1517 109.296 79.6097C109.582 78.5258 110.049 77.5171 110.741 76.6289C111.991 75.0331 114.038 74.0997 116.071 74.461C116.808 74.6116 116.658 75.9063 115.89 75.8159Z" fill="#3F2F33"/>
<path d="M172.316 81.685C172.316 81.685 175.146 82.6786 178.353 83.4012C180.987 83.9883 183.878 84.3948 185.684 83.898C189.674 82.784 189.99 76.4008 189.854 75.9642C189.854 75.9642 185.76 75.0157 182.282 74.5039C181.89 74.4587 181.484 74.4286 181.077 74.3985C177.75 74.2329 173.836 75.1663 173.52 75.3168C173.174 75.4975 172.316 81.685 172.316 81.685Z" fill="white"/>
<path d="M174.737 74.5653C180.533 73.0599 187.127 73.8578 192.276 76.9891C192.667 77.23 192.321 77.8322 191.914 77.6064C186.66 74.8213 180.789 73.9782 174.993 75.4837C174.406 75.6342 174.15 74.7159 174.737 74.5653Z" fill="#3F2F33"/>
<path d="M173.745 81.0994C175.868 82.1381 178.217 82.8006 180.58 82.9812C182.944 83.1619 185.247 82.8457 187.566 82.4242C188.243 82.3037 188.484 83.192 187.852 83.4479C183.23 85.3297 177.509 84.2759 173.279 81.8973C172.737 81.6112 173.203 80.8434 173.745 81.0994Z" fill="#3F2F33"/>
<path d="M178.353 83.4032C180.987 83.9904 183.878 84.3968 185.684 83.9C189.674 82.786 189.99 76.4028 189.854 75.9662C189.854 75.9662 185.76 75.0178 182.282 74.5059C181.89 74.4607 181.484 74.4306 181.077 74.4005C180.129 75.8458 179.376 77.5018 178.895 79.3686C178.533 80.7536 178.368 82.0935 178.353 83.4032Z" fill="#3F2F33"/>
<path d="M178.037 65.0815C175.929 71.3593 174.062 77.7274 172.436 84.1407C171.638 87.3022 170.931 90.4787 170.253 93.6553C169.561 96.9522 169.064 100.294 167.995 103.501C167.814 104.028 166.986 103.968 167.001 103.366C167.122 96.9221 169.169 90.268 170.81 84.0654C172.542 77.5317 174.589 71.1033 176.922 64.7653C177.163 64.0728 178.262 64.3588 178.037 65.0815Z" fill="#3F2F33"/>
<path d="M167.497 103.953C164.772 103.818 162.017 103.472 159.368 102.824C158.058 102.508 156.763 102.132 155.498 101.65C154.189 101.153 153.105 100.491 152.021 99.6025C151.569 99.2262 152.051 98.4132 152.593 98.6089C155.017 99.5122 157.456 100.476 159.955 101.123C162.499 101.785 165.073 102.282 167.648 102.794C168.295 102.93 168.159 103.983 167.497 103.953Z" fill="#3F2F33"/>
<path d="M152.835 110.759C147.294 109.509 142.778 105.595 139.511 101.094C139.12 100.567 139.963 99.9345 140.414 100.401C144.043 104.225 148.002 108.034 153.166 109.615C153.873 109.825 153.572 110.924 152.835 110.759Z" fill="#3F2F33"/>
<path d="M143.968 80.0751C143.968 80.0751 148.545 82.0774 148.846 82.1677C148.997 82.2128 150.036 82.2128 151.541 82.1225C153.031 82.0472 154.989 81.8515 156.961 81.5203C160.92 80.8429 162.471 74.5349 162.471 74.5349C162.471 74.5349 156.358 73.1499 153.95 72.5929C153.363 72.4423 153.001 72.3671 153.001 72.3671C153.001 72.3821 140.476 74.1134 139.994 74.279C139.512 74.4296 143.968 80.0751 143.968 80.0751Z" fill="white"/>
<path d="M163.432 75.5436C160.527 73.8123 156.884 73.2553 153.572 73.0897C151.073 72.9692 148.573 73.1198 146.12 73.5413C143.59 73.9779 141.182 74.8962 138.652 75.3328C138.08 75.4382 137.734 74.7156 138.246 74.3693C140.384 72.9241 143.169 72.367 145.683 71.9756C148.363 71.5691 151.088 71.4638 153.797 71.6745C157.32 71.9606 160.858 72.8789 163.899 74.7457C164.396 75.0618 163.944 75.8597 163.432 75.5436Z" fill="#3F2F33"/>
<path d="M160.95 81.3247C159.354 81.9269 157.563 82.0925 155.861 82.2731C154.13 82.4538 152.369 82.5291 150.622 82.4237C147.717 82.2581 144.54 81.6107 142.207 79.7891C141.77 79.4428 142.252 78.6299 142.764 78.8407C145.489 79.9547 148.123 80.8128 151.089 81.0236C152.685 81.129 154.281 81.0838 155.861 80.9784C157.517 80.873 159.219 80.587 160.86 80.7376C161.221 80.7526 161.281 81.2043 160.95 81.3247Z" fill="#3F2F33"/>
<path d="M151.541 82.1231C153.031 82.0479 154.989 81.8521 156.961 81.5209C160.92 80.8435 162.471 74.5356 162.471 74.5356C162.471 74.5356 156.358 73.1505 153.95 72.5935C153.137 73.9183 152.474 75.4539 152.053 77.125C151.601 78.8412 151.436 80.5123 151.541 82.1231Z" fill="#3F2F33"/>
<path d="M167.497 62.2517C167.136 66.3466 164.11 67.8671 160.165 67.8671C156.221 67.8671 143.635 66.3466 143.635 66.3466C143.635 66.3466 143.635 62.2517 155.574 62.2517C167.497 62.2517 167.497 62.2517 167.497 62.2517Z" fill="#3F2F33"/>
<path d="M192.715 70.7584C190.984 67.9582 181.243 63.0052 178.549 60.732C178.549 60.732 173.701 65.7753 179.03 69.3734C184.45 73.0467 194.281 75.6963 193.332 75.4705C193.332 75.4705 194.446 73.5586 192.715 70.7584Z" fill="#3F2F33"/>
<path d="M35.6927 364.61C35.6927 364.61 46.0052 364.716 61.0298 364.806C101.617 365.107 176.71 365.514 176.996 364.61C177.102 364.339 178.246 354.223 179.962 338.686C185.954 284.866 198.871 166.009 198.871 166.009L164.501 148.304C160.165 162.441 144.087 172.919 124.907 172.919C103.529 172.919 86.0055 159.881 84.2892 143.306L44.7556 161.101L52.1776 210.525L35.6927 364.61Z" fill="white"/>
<path d="M253.023 213.341L285.917 256.563L274.702 275.306L245.902 227.131L253.023 213.341Z" fill="white"/>
<path d="M140.776 161.099L164.502 148.302L198.872 166.006C213.671 174.693 212.03 182.943 223.577 262.447L245.903 227.128C245.903 227.64 267.506 263.44 276.945 279.052C279.58 283.403 281.266 286.188 281.266 286.188L241.341 340.37L235.485 348.334L235.455 348.364C218.94 365.225 189.734 359.971 179.978 338.699C178.262 354.235 177.118 364.352 177.012 364.623C176.847 365.15 124.366 365.135 124.366 365.135L140.776 161.099Z" fill="#861532"/>
<path d="M19.119 198.043C20.9406 182.206 30.5455 168.34 44.7572 161.099L84.2908 143.319L119.654 165.179L106.165 364.97C96.9217 364.909 -0.000487717 365.15 -0.000487717 365.15L19.119 198.043Z" fill="#861532"/>
<path d="M140.775 161.102L152.442 182.524L171.095 151.692L152.984 129.833L140.775 161.102Z" fill="#A41D42"/>
<path d="M119.669 165.18C118.826 164.608 97.2977 127.047 97.2977 127.047C97.2977 127.047 99.9172 118.255 99.6763 119.053C99.4354 119.866 76.9437 146.618 76.9437 146.618L100.279 182.508L119.669 165.18Z" fill="#A41D42"/>
<path d="M222.039 269.583C215.054 275.379 208.4 281.642 201.083 287.016C200.135 287.709 199.232 286.263 199.894 285.481C205.705 278.631 212.811 272.925 219.841 267.385C220.504 266.858 221.392 266.752 222.039 267.385C222.596 267.927 222.687 269.056 222.039 269.583Z" fill="#63202E"/>
<path d="M190.696 236.645C195.499 230.397 199.503 223.518 203.011 216.457C203.508 215.463 205.134 216.156 204.803 217.21C202.303 225.023 198.103 232.008 192.789 238.241C191.81 239.37 189.778 237.835 190.696 236.645Z" fill="#63202E"/>
<path d="M59.164 365.165C60.8652 346.452 62.8826 327.754 64.5687 309.026C66.2849 289.966 67.971 270.922 69.9131 251.878C70.9368 241.836 72.0358 231.81 73.3004 221.799C73.5864 219.48 77.2748 219.45 76.9737 221.799C72.3068 259.044 69.4765 296.5 65.9688 333.866C64.9902 344.299 63.7858 354.717 62.8374 365.165C62.6266 367.498 58.9532 367.528 59.164 365.165Z" fill="#63202E"/>
<path d="M73.5552 233.633C75.2714 233.151 76.4156 231.751 77.364 230.321C78.5985 228.469 79.6974 226.542 80.8567 224.661C83.3106 220.671 85.8548 216.757 88.5346 212.903C89.1669 211.984 90.5971 212.782 90.0551 213.791C87.6012 218.262 84.9967 222.628 82.2869 226.949C80.2394 230.216 78.2071 234.747 74.1573 235.861C72.7422 236.238 72.14 234.025 73.5552 233.633Z" fill="#63202E"/>
<path d="M193.977 221.454C190.273 252.361 187.082 283.344 182.851 314.191C181.677 322.742 180.503 331.278 179.238 339.814C179.072 340.913 177.176 340.657 177.296 339.543C180.382 308.576 184.462 277.713 188.437 246.851C189.536 238.376 190.8 229.93 191.884 221.454C192.035 220.144 194.127 220.114 193.977 221.454Z" fill="#63202E"/>
<path d="M238.345 241.762C229.357 257.856 220.55 274.04 211.201 289.937C210.494 291.142 208.687 290.073 209.334 288.854C218.021 272.579 227.234 256.636 236.282 240.558C237.035 239.218 239.082 240.423 238.345 241.762Z" fill="#63202E"/>
</svg>
