<svg width="307" height="362" viewBox="0 0 307 362" fill="none" xmlns="http://www.w3.org/2000/svg">
<path d="M122.324 173.384C130.62 173.384 138.132 170.027 143.567 164.577C149.001 159.143 152.374 151.645 152.374 143.35V93.0073L118.576 78.4042L110.386 74.8513C109.769 75.6793 103.265 106.572 93.9312 133.535C87.1867 153.045 101.684 173.384 122.324 173.384Z" fill="#6D464D"/>
<path d="M118.577 78.4036C118.682 81.1887 118.833 82.9802 118.833 83.2361C118.833 84.4556 123.334 109.808 127.414 117.982C131.253 125.705 134.986 138.186 152.359 142.266V93.0217L118.577 78.4036Z" fill="#392C2D"/>
<path d="M273.324 202.908H241.844C239.089 202.908 237.222 200.107 238.276 197.563L264.261 134.619C264.863 133.174 266.263 132.226 267.829 132.226H299.308C302.063 132.226 303.93 135.026 302.876 137.57L276.891 200.514C276.304 201.974 274.889 202.908 273.324 202.908Z" fill="#748BA5"/>
<path d="M276.44 202.908H244.961C242.206 202.908 240.339 200.108 241.393 197.563L267.377 134.62C267.979 133.174 269.38 132.226 270.945 132.226H302.425C305.18 132.226 307.046 135.026 305.993 137.57L280.008 200.514C279.406 201.974 278.006 202.908 276.44 202.908Z" fill="#283036"/>
<path d="M272.993 137.105H272.963C271.532 137.105 270.238 137.978 269.696 139.318L267.061 145.942C266.143 148.245 267.844 150.744 270.328 150.744C271.758 150.744 273.053 149.871 273.58 148.547L276.244 141.922C277.178 139.619 275.477 137.105 272.993 137.105Z" fill="#525F69"/>
<path d="M270.825 262.763L306.595 165.66C306.595 165.66 304.954 153.707 298.766 148.769C292.594 143.831 278.578 141.768 276.515 146.3C274.453 150.831 285.578 152.066 290.11 155.769C294.641 159.473 294.641 164.832 294.641 164.832C294.641 164.832 258.269 162.755 258.39 169.364C258.48 174.543 263.839 174.994 263.839 174.994C263.839 174.994 257.351 174.919 257.245 179.962C257.17 183.38 262.499 185.262 262.499 185.262C262.499 185.262 259.233 189.281 263.689 193.436C266.384 195.95 277.75 202.318 277.75 202.318L256.131 202.8L246.526 221.378L270.825 262.763Z" fill="#6D464D"/>
<path d="M289.627 177.405C284.674 177.149 279.721 176.893 274.783 176.607C272.359 176.472 269.92 176.336 267.496 176.186C266.277 176.11 265.072 176.035 263.853 175.96C262.784 175.884 261.76 175.93 260.782 175.463C260.345 175.252 260.511 174.62 260.902 174.484C262.016 174.123 263.251 174.364 264.41 174.424C265.524 174.499 266.653 174.56 267.767 174.635C270.191 174.785 272.63 174.966 275.054 175.132C279.916 175.463 284.764 175.824 289.627 176.186C290.394 176.246 290.409 177.45 289.627 177.405Z" fill="#3F2F33"/>
<path d="M286.54 192.099C282.4 191.678 278.29 191.061 274.211 190.202C272.133 189.766 270.071 189.254 268.008 188.682C266.126 188.155 263.898 187.764 262.242 186.695C261.745 186.379 261.911 185.49 262.558 185.535C264.545 185.641 266.548 186.514 268.46 187.041C270.432 187.583 272.434 188.08 274.421 188.561C278.471 189.525 282.566 190.353 286.691 191.015C287.308 191.091 287.173 192.16 286.54 192.099Z" fill="#3F2F33"/>
<path d="M183.388 22.4017C197.69 41.2051 200.099 54.9801 189.846 82.6356C179.188 111.36 172.067 131.533 149.063 127.845C128.89 124.608 124.945 111.089 120.866 102.914C116.786 94.7396 112.284 69.4025 112.284 68.168C112.284 66.9486 108.205 27.701 128.227 17.4939C148.235 7.27176 183.388 22.4017 183.388 22.4017Z" fill="#6D464D"/>
<path d="M191.894 35.8904C191.894 35.8904 197.645 31.1331 191.894 25.2016C191.894 25.2016 189.47 17.057 182.063 16.6806C182.063 16.6806 177.622 6.68428 170.215 5.19387C162.808 3.71851 157.253 8.52096 157.253 8.52096C157.253 8.52096 155.401 0 147.618 0C139.835 0 136.869 4.8175 136.869 4.8175C136.869 4.8175 130.937 1.49042 123.907 2.58941C116.861 3.70346 116.274 9.99632 116.274 9.99632C116.274 9.99632 105.751 5.9165 101.31 11.4717C96.8685 17.0269 98.7202 27.7759 98.7202 27.7759C98.7202 27.7759 91.3133 30.004 91.3133 37.7722C91.3133 45.5405 96.1308 51.3968 96.1308 51.3968C96.1308 51.3968 87.2335 56.2895 93.165 64.0728C99.0966 71.8561 96.8685 80.7986 102.062 82.9665C107.241 85.1193 106.669 89.5002 106.669 89.5002L112.586 82.0632L122.07 76.6585L126.888 74.8068C126.888 74.8068 128.002 59.993 129.116 59.2553C130.23 58.5176 139.865 54.0765 139.865 54.0765C139.865 54.0765 142.439 32.2171 142.815 32.2171C143.177 32.2472 191.894 35.8904 191.894 35.8904Z" fill="#392C2D"/>
<path d="M122.054 61.5122C122.054 61.5122 113.909 50.4018 109.092 51.5159C104.274 52.6299 98.7189 63.3639 98.7189 63.3639C98.7189 63.3639 104.139 85.8105 110.386 87.8128C116.634 89.815 120.578 83.733 120.578 83.733L122.054 61.5122Z" fill="#6D464D"/>
<path d="M110.794 58.2761C115.626 62.6119 118.035 69.2209 118.983 75.4987C119.089 76.2364 118.02 76.5826 117.839 75.8148C116.394 69.6876 114.874 63.4098 110.297 58.7729C109.981 58.4417 110.462 57.975 110.794 58.2761Z" fill="#3F2F33"/>
<path d="M116.515 70.0943C114.904 69.8836 113.458 70.8471 112.585 72.1568C112.104 72.8795 111.757 73.7075 111.516 74.5355C111.245 75.4538 110.974 76.3722 110.703 77.2905C110.538 77.8776 109.71 77.7271 109.68 77.155C109.65 76.613 109.589 76.056 109.635 75.5291C109.68 74.9871 109.785 74.4301 109.921 73.8881C110.207 72.8042 110.673 71.7955 111.366 70.9073C112.615 69.3115 114.663 68.3781 116.695 68.7394C117.433 68.89 117.282 70.1847 116.515 70.0943Z" fill="#3F2F33"/>
<path d="M172.94 75.9633C172.94 75.9633 175.77 76.9569 178.977 77.6795C181.612 78.2667 184.502 78.6732 186.309 78.1763C190.298 77.0623 190.614 70.6791 190.479 70.2425C190.479 70.2425 186.384 69.2941 182.906 68.7822C182.515 68.7371 182.108 68.7069 181.702 68.6768C178.375 68.5112 174.461 69.4446 174.145 69.5952C173.798 69.7758 172.94 75.9633 172.94 75.9633Z" fill="white"/>
<path d="M175.362 68.8436C181.158 67.3381 187.752 68.136 192.9 71.2674C193.292 71.5083 192.945 72.1105 192.539 71.8847C187.285 69.0996 181.413 68.2565 175.617 69.762C175.03 69.9125 174.774 68.9942 175.362 68.8436Z" fill="#3F2F33"/>
<path d="M174.37 75.3776C176.493 76.4164 178.841 77.0788 181.205 77.2594C183.568 77.4401 185.872 77.1239 188.19 76.7024C188.868 76.582 189.108 77.4702 188.476 77.7261C183.854 79.608 178.134 78.5541 173.903 76.1755C173.361 75.8895 173.828 75.1217 174.37 75.3776Z" fill="#3F2F33"/>
<path d="M178.977 77.6815C181.612 78.2687 184.502 78.6752 186.309 78.1783C190.298 77.0643 190.614 70.6811 190.479 70.2445C190.479 70.2445 186.384 69.2961 182.906 68.7842C182.515 68.7391 182.108 68.7089 181.702 68.6788C180.754 70.1241 180.001 71.7801 179.519 73.6469C179.158 75.0319 178.992 76.3718 178.977 77.6815Z" fill="#3F2F33"/>
<path d="M178.661 59.3597C176.553 65.6376 174.687 72.0057 173.061 78.419C172.263 81.5805 171.555 84.757 170.878 87.9336C170.185 91.2305 169.688 94.5727 168.62 97.7793C168.439 98.3063 167.611 98.246 167.626 97.6438C167.746 91.2004 169.794 84.5463 171.435 78.3437C173.166 71.81 175.213 65.3816 177.547 59.0436C177.788 58.3511 178.887 58.6371 178.661 59.3597Z" fill="#3F2F33"/>
<path d="M168.122 98.2316C165.397 98.0961 162.642 97.7499 159.992 97.1025C158.682 96.7863 157.388 96.41 156.123 95.9282C154.813 95.4314 153.729 94.769 152.645 93.8808C152.194 93.5044 152.675 92.6915 153.217 92.8872C155.641 93.7905 158.08 94.754 160.579 95.4013C163.123 96.0637 165.698 96.5605 168.272 97.0724C168.92 97.2079 168.784 98.2617 168.122 98.2316Z" fill="#3F2F33"/>
<path d="M153.459 105.037C147.919 103.788 143.403 99.8734 140.136 95.372C139.744 94.8451 140.587 94.2128 141.039 94.6795C144.667 98.5034 148.627 102.312 153.79 103.893C154.498 104.104 154.197 105.203 153.459 105.037Z" fill="#3F2F33"/>
<path d="M144.593 74.3534C144.593 74.3534 149.17 76.3557 149.471 76.446C149.621 76.4912 150.66 76.4912 152.165 76.4008C153.656 76.3256 155.613 76.1299 157.585 75.7986C161.545 75.1212 163.095 68.8133 163.095 68.8133C163.095 68.8133 156.983 67.4282 154.574 66.8712C153.987 66.7207 153.626 66.6454 153.626 66.6454C153.626 66.6604 141.1 68.3917 140.619 68.5573C140.137 68.7079 144.593 74.3534 144.593 74.3534Z" fill="white"/>
<path d="M164.057 69.8219C161.151 68.0906 157.508 67.5336 154.196 67.368C151.697 67.2476 149.198 67.3981 146.744 67.8196C144.215 68.2562 141.806 69.1746 139.277 69.6112C138.705 69.7165 138.359 68.9939 138.87 68.6477C141.008 67.2024 143.793 66.6454 146.307 66.254C148.987 65.8475 151.712 65.7421 154.422 65.9529C157.945 66.2389 161.483 67.1572 164.524 69.024C165.02 69.3402 164.569 70.1381 164.057 69.8219Z" fill="#3F2F33"/>
<path d="M161.574 75.603C159.979 76.2052 158.187 76.3708 156.486 76.5515C154.755 76.7321 152.993 76.8074 151.247 76.702C148.341 76.5364 145.165 75.889 142.831 74.0674C142.395 73.7212 142.876 72.9082 143.388 73.119C146.113 74.233 148.748 75.0911 151.714 75.3019C153.309 75.4073 154.905 75.3621 156.486 75.2567C158.142 75.1514 159.843 74.8653 161.484 75.0159C161.845 75.0309 161.906 75.4826 161.574 75.603Z" fill="#3F2F33"/>
<path d="M152.165 76.4015C153.656 76.3262 155.613 76.1305 157.585 75.7993C161.545 75.1218 163.095 68.8139 163.095 68.8139C163.095 68.8139 156.983 67.4289 154.574 66.8718C153.761 68.1966 153.099 69.7322 152.677 71.4033C152.226 73.1195 152.06 74.7906 152.165 76.4015Z" fill="#3F2F33"/>
<path d="M168.122 56.53C167.76 60.6249 164.734 62.1454 160.79 62.1454C156.846 62.1454 144.26 60.6249 144.26 60.6249C144.26 60.6249 144.26 56.53 156.198 56.53C168.122 56.53 168.122 56.53 168.122 56.53Z" fill="#3F2F33"/>
<path d="M193.34 65.0367C191.608 62.2365 181.868 57.2835 179.173 55.0103C179.173 55.0103 174.325 60.0536 179.655 63.6517C185.075 67.325 194.905 69.9746 193.957 69.7488C193.957 69.7488 195.071 67.8369 193.34 65.0367Z" fill="#3F2F33"/>
<path d="M36.3172 358.889C36.3172 358.889 46.6297 358.994 61.6543 359.084C102.242 359.385 177.335 359.792 177.621 358.889C177.726 358.618 178.87 348.501 180.586 332.964C186.578 279.144 199.495 160.287 199.495 160.287L165.125 142.583C160.789 156.719 144.711 167.197 125.531 167.197C104.154 167.197 86.63 154.16 84.9137 137.584L45.3801 155.379L52.8021 204.804L36.3172 358.889Z" fill="white"/>
<path d="M253.647 207.619L286.542 250.841L275.326 269.584L246.527 221.409L253.647 207.619Z" fill="white"/>
<path d="M141.4 155.377L165.126 142.58L199.496 160.285C214.295 168.971 212.654 177.221 224.201 256.725L246.527 221.407C246.527 221.919 268.131 257.719 277.57 273.33C280.205 277.681 281.891 280.466 281.891 280.466L241.966 334.648L236.109 342.612L236.079 342.642C219.564 359.504 190.358 354.25 180.603 332.977C178.886 348.514 177.742 358.63 177.637 358.901C177.471 359.428 124.991 359.413 124.991 359.413L141.4 155.377Z" fill="#861532"/>
<path d="M19.7435 192.321C21.5651 176.484 31.17 162.619 45.3817 155.377L84.9153 137.598L120.279 159.457L106.79 359.248C97.5462 359.188 0.624023 359.429 0.624023 359.429L19.7435 192.321Z" fill="#861532"/>
<path d="M141.399 155.38L153.066 176.803L171.719 145.971L153.608 124.111L141.399 155.38Z" fill="#A41D42"/>
<path d="M120.293 159.459C119.45 158.887 97.9222 121.325 97.9222 121.325C97.9222 121.325 100.542 112.533 100.301 113.331C100.06 114.144 77.5683 140.896 77.5683 140.896L100.903 176.787L120.293 159.459Z" fill="#A41D42"/>
<path d="M222.664 263.861C215.679 269.657 209.024 275.92 201.708 281.294C200.759 281.987 199.856 280.542 200.518 279.759C206.33 272.909 213.435 267.203 220.466 261.663C221.128 261.136 222.017 261.031 222.664 261.663C223.221 262.205 223.311 263.334 222.664 263.861Z" fill="#63202E"/>
<path d="M191.321 230.924C196.123 224.676 200.128 217.796 203.636 210.735C204.132 209.742 205.758 210.434 205.427 211.488C202.928 219.301 198.728 226.287 193.413 232.519C192.435 233.648 190.402 232.113 191.321 230.924Z" fill="#63202E"/>
<path d="M59.7885 359.443C61.4897 340.73 63.5071 322.032 65.1932 303.304C66.9094 284.245 68.5955 265.2 70.5376 246.156C71.5613 236.115 72.6603 226.088 73.9249 216.077C74.2109 213.758 77.8994 213.728 77.5983 216.077C72.9313 253.322 70.101 290.778 66.5933 328.144C65.6147 338.577 64.4103 348.995 63.4619 359.443C63.2511 361.776 59.5778 361.806 59.7885 359.443Z" fill="#63202E"/>
<path d="M74.1797 227.911C75.8959 227.43 77.0401 226.03 77.9885 224.599C79.223 222.748 80.322 220.821 81.4812 218.939C83.9351 214.949 86.4793 211.035 89.1591 207.181C89.7914 206.263 91.2216 207.061 90.6796 208.069C88.2257 212.541 85.6212 216.906 82.9114 221.227C80.8639 224.494 78.8316 229.026 74.7819 230.14C73.3667 230.516 72.7645 228.303 74.1797 227.911Z" fill="#63202E"/>
<path d="M194.601 215.732C190.898 246.64 187.706 277.622 183.476 308.469C182.301 317.02 181.127 325.556 179.863 334.092C179.697 335.191 177.8 334.935 177.921 333.821C181.007 302.854 185.087 271.992 189.061 241.13C190.16 232.654 191.425 224.208 192.509 215.732C192.659 214.423 194.752 214.392 194.601 215.732Z" fill="#63202E"/>
<path d="M238.969 236.041C229.982 252.134 221.175 268.318 211.826 284.216C211.118 285.42 209.311 284.351 209.959 283.132C218.645 266.858 227.859 250.915 236.907 234.836C237.659 233.496 239.707 234.701 238.969 236.041Z" fill="#63202E"/>
</svg>
