<svg width="1440" height="324" viewBox="0 0 1440 324" fill="none" xmlns="http://www.w3.org/2000/svg">
<rect width="1440" height="324" fill="#042A2B"/>
<path d="M78.0532 176.614L76.6871 176.737V178.108V292.793H66.7708V178.108V176.736L65.4038 176.614C29.6045 173.427 1.5 143.231 1.5 106.457C1.5 67.5418 32.9572 35.9941 71.7178 35.9941C110.479 35.9941 141.958 67.5424 141.958 106.457C141.958 143.23 113.854 173.405 78.0532 176.614Z" stroke="#093738" stroke-opacity="0.5" stroke-width="3"/>
<path d="M209.967 186.242H212.125L336.776 185.924V186.242C336.776 254.624 280.496 310.913 212.125 310.913C143.755 310.913 87.4744 254.648 87.4744 186.242V185.924L209.796 186.242L122.199 34.4941H297.564L209.967 186.242Z" stroke="#093738" stroke-opacity="0.5" stroke-width="3" stroke-miterlimit="10"/>
<path d="M372.457 106.037L371.396 107.098L372.457 108.159L423.879 159.58L415.501 167.958L364.079 116.537L363.019 115.476L361.958 116.537L310.522 167.958L302.157 159.581L353.58 108.159L354.64 107.098L353.58 106.037L302.157 54.6151L310.522 46.2384L361.958 97.6594L363.019 98.7197L364.079 97.6592L415.501 46.2378L423.879 54.6158L372.457 106.037Z" stroke="#093738" stroke-opacity="0.5" stroke-width="3"/>
<path d="M330.345 298.602L329.347 297.712L328.349 298.602C318.816 307.107 306.254 312.274 292.49 312.274C262.749 312.274 238.555 288.08 238.555 258.352C238.555 228.611 262.749 204.417 292.49 204.417C306.253 204.417 318.816 209.597 328.35 218.089L329.347 218.977L330.345 218.09C339.893 209.596 352.456 204.417 366.205 204.417C395.932 204.417 420.126 228.611 420.126 258.352C420.126 288.08 395.933 312.274 366.205 312.274C352.455 312.274 339.893 307.107 330.345 298.602Z" stroke="#093738" stroke-opacity="0.5" stroke-width="3"/>
</svg>
