<svg width="477" height="315" viewBox="0 0 477 315" fill="none" xmlns="http://www.w3.org/2000/svg">
<path d="M87.4136 161.592L86.0475 161.714V163.086V291.68H74.5849V163.086V161.713L73.2179 161.592C33.0404 158.015 1.5 124.127 1.5 82.8568C1.5 39.1838 36.803 3.77832 80.3038 3.77832C123.805 3.77832 159.132 39.1844 159.132 82.8568C159.132 124.126 127.593 157.99 87.4136 161.592Z" stroke="#EE7B44" stroke-opacity="0.5" stroke-width="3"/>
<path d="M235.104 172.194H237.521L377.095 171.837V172.194C377.095 248.761 314.076 311.79 237.521 311.79C160.965 311.79 97.9468 248.789 97.9468 172.194V171.837L234.912 172.194L136.829 2.27832H333.188L235.104 172.194Z" stroke="#042A2B" stroke-opacity="0.5" stroke-width="3" stroke-miterlimit="10"/>
<path d="M417.174 82.5134L416.114 83.5741L417.174 84.6347L474.879 142.339L465.244 151.974L407.539 94.2697L406.479 93.2092L405.418 94.2696L347.698 151.974L338.078 142.34L395.783 84.6347L396.844 83.5741L395.783 82.5134L338.078 24.8081L347.698 15.1744L405.418 72.8785L406.479 73.9389L407.539 72.8783L465.244 15.1738L474.879 24.8089L417.174 82.5134Z" stroke="#DC393A" stroke-opacity="0.5" stroke-width="3"/>
<path d="M369.775 298.138L368.776 297.249L367.778 298.139C357.072 307.69 342.965 313.493 327.507 313.493C294.106 313.493 266.936 286.322 266.936 252.936C266.936 219.535 294.106 192.365 327.507 192.365C342.964 192.365 357.072 198.182 367.779 207.719L368.776 208.607L369.774 207.72C380.497 198.181 394.605 192.365 410.047 192.365C443.432 192.365 470.603 219.535 470.603 252.936C470.603 286.322 443.433 313.493 410.047 313.493C394.605 313.493 380.496 307.69 369.775 298.138Z" stroke="#5EB1BE" stroke-opacity="0.5" stroke-width="3"/>
</svg>
